<?xml version="1.0" encoding="UTF-8" standalone="no"?>
<!-- Created with Inkscape (http://www.inkscape.org/) -->

<svg
   xmlns:dc="http://purl.org/dc/elements/1.1/"
   xmlns:cc="http://creativecommons.org/ns#"
   xmlns:rdf="http://www.w3.org/1999/02/22-rdf-syntax-ns#"
   xmlns:svg="http://www.w3.org/2000/svg"
   xmlns="http://www.w3.org/2000/svg"
   xmlns:sodipodi="http://sodipodi.sourceforge.net/DTD/sodipodi-0.dtd"
   xmlns:inkscape="http://www.inkscape.org/namespaces/inkscape"
   width="120.65625"
   height="120.65625"
   id="svg6256"
   version="1.1"
   inkscape:version="0.48.3.1 r9886"
   sodipodi:docname="filtroRF.svg">
  <defs
     id="defs6258" />
  <sodipodi:namedview
     id="base"
     pagecolor="#ffffff"
     bordercolor="#666666"
     borderopacity="1.0"
     inkscape:pageopacity="0.0"
     inkscape:pageshadow="2"
     inkscape:zoom="2.8"
     inkscape:cx="62.10811"
     inkscape:cy="68.701426"
     inkscape:document-units="px"
     inkscape:current-layer="layer1"
     showgrid="false"
     fit-margin-top="1"
     fit-margin-left="1"
     fit-margin-right="1"
     fit-margin-bottom="1"
     inkscape:window-width="1366"
     inkscape:window-height="744"
     inkscape:window-x="0"
     inkscape:window-y="24"
     inkscape:window-maximized="1" />
  <metadata
     id="metadata6261">
    <rdf:RDF>
      <cc:Work
         rdf:about="">
        <dc:format>image/svg+xml</dc:format>
        <dc:type
           rdf:resource="http://purl.org/dc/dcmitype/StillImage" />
        <dc:title />
      </cc:Work>
    </rdf:RDF>
  </metadata>
  <g
     inkscape:label="Capa 1"
     inkscape:groupmode="layer"
     id="layer1"
     transform="translate(-382.75,-563.25)">
    <g
       id="g3860">
      <rect
         ry="0"
         y="564.75299"
         x="384.24789"
         height="117.64706"
         width="117.64706"
         id="rect3771"
         style="fill:none;stroke:#000000;stroke-width:1;stroke-miterlimit:4;stroke-opacity:1;stroke-dasharray:none" />
      <g
         style="stroke-width:0.48453021;stroke-miterlimit:4;stroke-dasharray:none"
         transform="matrix(1.7115025,0,0,2.4887471,-256.19962,-1011.4184)"
         id="g3083">
        <g
           style="stroke-width:0.39413506;stroke-miterlimit:4;stroke-dasharray:none"
           id="g3075"
           transform="matrix(1.4366115,0,0,1.0519915,-192.16253,-35.178039)">
          <path
             sodipodi:nodetypes="cccccccccccccccccccccccccccccccccccccccccccccccccc"
             inkscape:connector-curvature="0"
             d="m 427.30321,645.03061 -0.37317,0.59266 -0.37318,0.57165 -0.37318,0.5421 -0.37318,0.50443 -0.37318,0.45926 -0.37317,0.4072 -0.37318,0.34909 -0.37318,0.28573 -0.37317,0.21812 -0.37319,0.14725 -0.37317,0.0742 -0.37318,10e-6 -0.37318,-0.0742 -0.37318,-0.14724 -0.37317,-0.2181 -0.37318,-0.28572 -0.37318,-0.34906 -0.37317,-0.40719 -0.37318,-0.45924 -0.37318,-0.50444 -0.37318,-0.54208 -0.37318,-0.57164 -0.37317,-0.59266 -0.37318,-0.60483 -0.37318,-0.60797 -0.37318,-0.60201 -0.37317,-0.58707 -0.37319,-0.56337 -0.37317,-0.53123 -0.37318,-0.49119 -0.37318,-0.44378 -0.37318,-0.38976 -0.37317,-0.32992 -0.37318,-0.26514 -0.37318,-0.19641 -0.37317,-0.12474 -0.37318,-0.0512 -0.37318,0.0231 -0.37318,0.097 -0.37318,0.16954 -0.37317,0.23951 -0.37318,0.3059 -0.37318,0.36772 -0.37318,0.42405 -0.37317,0.47405 -0.37319,0.51697 -0.37317,0.55215 -0.37318,0.5791 -0.37318,0.59741"
             id="path5774-1"
             style="fill:none;stroke:#000000;stroke-width:0.39413506;stroke-linecap:round;stroke-linejoin:round;stroke-miterlimit:4;stroke-opacity:1;stroke-dasharray:none;stroke-dashoffset:0" />
          <path
             sodipodi:nodetypes="cc"
             inkscape:connector-curvature="0"
             id="path6120-1"
             d="m 425.48638,640.45381 -14.65206,7.51681"
             style="fill:none;stroke:#000000;stroke-width:0.39413506;stroke-linecap:butt;stroke-linejoin:miter;stroke-miterlimit:4;stroke-opacity:1;stroke-dasharray:none;stroke-dashoffset:0" />
        </g>
        <path
           style="fill:none;stroke:#000000;stroke-width:0.48453021;stroke-linecap:round;stroke-linejoin:round;stroke-miterlimit:4;stroke-opacity:1;stroke-dasharray:none;stroke-dashoffset:0"
           id="path5774-6"
           d="m 421.70617,657.81597 -0.5361,0.62348 -0.53612,0.60137 -0.53611,0.57028 -0.53612,0.53067 -0.53611,0.48312 -0.5361,0.42838 -0.53612,0.36723 -0.53611,0.30059 -0.5361,0.22947 -0.53613,0.15491 -0.5361,0.0781 -0.53612,10e-6 -0.53611,-0.0781 -0.53611,-0.15489 -0.5361,-0.22945 -0.53612,-0.30057 -0.53612,-0.3672 -0.53609,-0.42837 -0.53612,-0.48312 -0.53611,-0.53066 -0.53612,-0.57028 -0.53612,-0.60135 -0.53609,-0.62348 -0.53612,-0.63627 -0.53611,-0.63957 -0.53612,-0.63331 -0.5361,-0.6176 -0.53613,-0.59266 -0.5361,-0.55885 -0.53611,-0.51672 -0.53612,-0.46685 -0.53611,-0.41002 -0.5361,-0.34708 -0.53611,-0.27893 -0.53612,-0.20661 -0.5361,-0.13123 -0.53612,-0.0539 -0.53611,0.0242 -0.53611,0.10203 -0.53612,0.17836 -0.5361,0.25195 -0.53612,0.32181 -0.53611,0.38684 -0.53611,0.44611 -0.5361,0.49868 -0.53613,0.54384 -0.53611,0.58087 -0.53611,0.60921 -0.53611,0.62846"
           inkscape:connector-curvature="0"
           sodipodi:nodetypes="cccccccccccccccccccccccccccccccccccccccccccccccccc" />
        <g
           style="stroke-width:0.39413506;stroke-miterlimit:4;stroke-dasharray:none"
           id="g3079"
           transform="matrix(1.4366115,0,0,1.0519915,-192.16253,-35.178039)">
          <path
             sodipodi:nodetypes="cccccccccccccccccccccccccccccccccccccccccccccccccc"
             inkscape:connector-curvature="0"
             d="m 427.30321,672.45918 -0.37317,0.59266 -0.37318,0.57165 -0.37318,0.54209 -0.37318,0.50444 -0.37318,0.45926 -0.37317,0.4072 -0.37318,0.34909 -0.37318,0.28573 -0.37317,0.21812 -0.37319,0.14725 -0.37317,0.0742 -0.37318,10e-6 -0.37318,-0.0742 -0.37318,-0.14724 -0.37317,-0.2181 -0.37318,-0.28572 -0.37318,-0.34906 -0.37317,-0.40719 -0.37318,-0.45924 -0.37318,-0.50444 -0.37318,-0.54208 -0.37318,-0.57164 -0.37317,-0.59266 -0.37318,-0.60483 -0.37318,-0.60796 -0.37318,-0.60201 -0.37317,-0.58708 -0.37319,-0.56337 -0.37317,-0.53123 -0.37318,-0.49119 -0.37318,-0.44378 -0.37318,-0.38976 -0.37317,-0.32992 -0.37318,-0.26514 -0.37318,-0.19641 -0.37317,-0.12474 -0.37318,-0.0512 -0.37318,0.0231 -0.37318,0.097 -0.37318,0.16954 -0.37317,0.23951 -0.37318,0.3059 -0.37318,0.36772 -0.37318,0.42405 -0.37317,0.47405 -0.37319,0.51697 -0.37317,0.55215 -0.37318,0.57911 -0.37318,0.5974"
             id="path5774-68"
             style="fill:none;stroke:#000000;stroke-width:0.39413506;stroke-linecap:round;stroke-linejoin:round;stroke-miterlimit:4;stroke-opacity:1;stroke-dasharray:none;stroke-dashoffset:0" />
          <path
             sodipodi:nodetypes="cc"
             inkscape:connector-curvature="0"
             id="path6120-1-1"
             d="m 425.48638,667.88238 -14.65206,7.51681"
             style="fill:none;stroke:#000000;stroke-width:0.39413506;stroke-linecap:butt;stroke-linejoin:miter;stroke-miterlimit:4;stroke-opacity:1;stroke-dasharray:none;stroke-dashoffset:0" />
        </g>
      </g>
    </g>
  </g>
</svg>
